<?xml version="1.0" encoding="utf-8"?>
<!-- Generator: Adobe Illustrator 16.0.0, SVG Export Plug-In . SVG Version: 6.00 Build 0)  -->
<!DOCTYPE svg PUBLIC "-//W3C//DTD SVG 1.1//EN" "http://www.w3.org/Graphics/SVG/1.1/DTD/svg11.dtd">
<svg version="1.1" id="Layer_1" xmlns="http://www.w3.org/2000/svg" xmlns:xlink="http://www.w3.org/1999/xlink" x="0px" y="0px"
	 width="132.02002px" height="171.40039px" viewBox="0 0 132.02002 171.40039" enable-background="new 0 0 132.02002 171.40039"
	 xml:space="preserve">
<g id="XMLID_2_">
	<g>
		<path fill="#3298CB" d="M99.75,0l32.27002,50.5498c-39.48047,25.30029-66,69.14014-67.18018,119.12988L4.81982,171
			C5.5498,99.23975,43.25977,36.17969,99.75,0z"/>
		<path fill="#CC2029" d="M71.92969,173.14941H64.7998c0-1.15918,0.00977-2.31934,0.04004-3.46973L71.92969,173.14941z"/>
		<path fill="#CC2029" d="M4.81982,171c-0.02002,0.70996-0.02002,1.42969-0.02002,2.14941H0l1.38965-0.61914L4.81982,171z"/>
	</g>
	<g>
	</g>
</g>
<path fill="none" d="M51.03564,190.14844c-0.54688-5.38086-0.82715-10.84277-0.82715-16.36816
	c0-56.69336,29.47168-106.50293,73.92676-134.94727"/>
<text transform="matrix(0.09065 -0.99588 0.99588 0.09065 50.44775 163.77002)"><tspan x="0" y="0" fill="#F1F1F2" font-family="'HelveticaNeue-CondensedBold'" font-size="39.22509"> </tspan><tspan x="8.85217" y="-0.27135" fill="#F1F1F2" font-family="'HelveticaNeue-CondensedBold'" font-size="39.22509" rotate="5.11968">P</tspan><tspan x="28.4171" y="1.62988" fill="#F1F1F2" font-family="'HelveticaNeue-CondensedBold'" font-size="39.22509" rotate="10.88481">r</tspan><tspan x="40.67783" y="3.83611" fill="#F1F1F2" font-family="'HelveticaNeue-CondensedBold'" font-size="39.22509" rotate="16.29012">e</tspan><tspan x="57.40894" y="8.70666" fill="#F1F1F2" font-family="'HelveticaNeue-CondensedBold'" font-size="39.22509" rotate="22.41792">s</tspan><tspan x="72.88921" y="15.03056" fill="#F1F1F2" font-family="'HelveticaNeue-CondensedBold'" font-size="39.22509" rotate="28.53284">e</tspan><tspan x="88.23244" y="23.28009" fill="#F1F1F2" font-family="'HelveticaNeue-CondensedBold'" font-size="39.22509" rotate="34.99297">n</tspan><tspan x="103.68921" y="34.29045" fill="#F1F1F2" font-family="'HelveticaNeue-CondensedBold'" font-size="39.22509" rotate="40.32001">t</tspan></text>
</svg>
